PathFileType	4	(X/Y/Z)	C:\Users\Basilio\Documents\Thesis Gigler\squatting_fais\c3dfiles\039\SLS_pre_front3\markers_experimental.trc
DataRate	CameraRate	NumFrames	NumMarkers	Units	OrigDataRate	OrigDataStartFrame	OrigNumFrames
200.000000	200.000000	4	63	mm	200.000000	812	2166
Frame#	Time	FHD			LBHD			RBHD			C7			T10			CLAV			LSHO			LUUPA			LMUPA			LDUPA			LLEP			LMEP			LRAD			LUL			LRFIN			RSHO			RUPA1			RMUPA			RDUPA			RLEP			RMEP			RRAD			RUL			RUFIN			LASI			RASI			USACR			LSACR			RSACR			LTHI1			LTHI2			LTHI3			LTHI4			LLFC			LMFC			LTIB1			LTIB2			LTIB3			LTIB4			LLMAL			LMMAL			LHEE			LMT1			LMT2			LMT5			RTHI			RTHI2			RTHI3			RTHI4			RLFC			RMFC			RTIB1			RTIB2			RTIB3			RTIB4			RLMAL			RMMAL			RHEE			RMT1			RMT2			RMT5			*61			*62			
		X1	Y1	Z1	X2	Y2	Z2	X3	Y3	Z3	X4	Y4	Z4	X5	Y5	Z5	X6	Y6	Z6	X7	Y7	Z7	X8	Y8	Z8	X9	Y9	Z9	X10	Y10	Z10	X11	Y11	Z11	X12	Y12	Z12	X13	Y13	Z13	X14	Y14	Z14	X15	Y15	Z15	X16	Y16	Z16	X17	Y17	Z17	X18	Y18	Z18	X19	Y19	Z19	X20	Y20	Z20	X21	Y21	Z21	X22	Y22	Z22	X23	Y23	Z23	X24	Y24	Z24	X25	Y25	Z25	X26	Y26	Z26	X27	Y27	Z27	X28	Y28	Z28	X29	Y29	Z29	X30	Y30	Z30	X31	Y31	Z31	X32	Y32	Z32	X33	Y33	Z33	X34	Y34	Z34	X35	Y35	Z35	X36	Y36	Z36	X37	Y37	Z37	X38	Y38	Z38	X39	Y39	Z39	X40	Y40	Z40	X41	Y41	Z41	X42	Y42	Z42	X43	Y43	Z43	X44	Y44	Z44	X45	Y45	Z45	X46	Y46	Z46	X47	Y47	Z47	X48	Y48	Z48	X49	Y49	Z49	X50	Y50	Z50	X51	Y51	Z51	X52	Y52	Z52	X53	Y53	Z53	X54	Y54	Z54	X55	Y55	Z55	X56	Y56	Z56	X57	Y57	Z57	X58	Y58	Z58	X59	Y59	Z59	X60	Y60	Z60	X61	Y61	Z61	X62	Y62	Z62	X63	Y63	Z63	

813	4.06	-307.5854187011719	1768.776611328125	-639.8987426757814	nan	nan	nan	-437.7725830078126	1746.444580078125	-614.4580078125001	-511.0179748535157	1573.750610351563	-694.3341064453126	-516.9653930664064	1261.905151367188	-717.8462524414064	nan	nan	nan	-439.7287597656251	1593.300170898438	-852.0169677734377	-273.4859008789063	1567.390869140625	-965.430603027344	-252.0669555664063	1601.84912109375	-935.6577148437502	-204.9439697265626	1582.072387695313	-967.481384277344	-139.6734313964844	1595.59375	-964.613464355469	-128.6365661621094	1527.1796875	-930.1972656250002	139.8623657226563	1647.396484375	-893.3217773437502	134.6885223388672	1652.248779296875	-969.148620605469	219.1873474121094	1687.632690429688	-893.789733886719	-391.6424865722657	1586.4384765625	-542.1481933593751	-218.4391784667969	1535.637817382813	-456.3189392089845	-196.2107696533204	1570.456420898438	-486.4974670410157	-150.6074676513672	1535.994750976563	-463.9777832031251	-90.0354690551758	1553.28466796875	-479.8329467773439	-83.94898986816408	1483.958618164063	-516.8961181640626	188.475814819336	1609.488525390625	-581.1034545898439	194.9077758789063	1601.60400390625	-505.3587951660157	275.9277343750001	1644.463989257813	-580.7630004882814	-331.9770812988282	1120.56591796875	-852.2368164062502	-324.8375244140626	1078.775634765625	-630.3079833984376	-517.1718139648439	1122.822021484375	-732.3510131835939	-516.1537475585939	1094.280029296875	-766.0082397460939	-513.5524902343751	1085.292114257813	-707.0524291992189	-213.5896606445313	917.3847656250002	-940.834655761719	-132.877914428711	894.3493652343752	-930.151062011719	-107.8925323486328	929.571960449219	-909.8648071289065	-110.4682769775391	836.961364746094	-924.7442626953127	-14.88566875457764	760.6754760742189	-921.4897460937502	10.90197086334229	746.6714477539064	-806.4039306640627	133.6859283447266	701.8999633789064	-891.4387817382815	125.803695678711	632.8732299804689	-943.2615356445315	155.984603881836	657.6675415039064	-921.7371215820315	213.0633392333985	601.0993041992189	-885.7697753906252	305.5628967285157	453.0787963867189	-931.7319335937502	310.4890747070313	451.7568969726564	-844.111267089844	296.4327697753907	360.4265747070313	-903.5573730468752	457.7821044921876	524.7146606445314	-847.7949218750002	455.0902709960939	527.5142211914064	-890.7319946289065	445.9414978027345	486.7956542968751	-949.4277954101565	-322.1456909179688	797.8532714843752	-593.6976318359376	-271.8679504394532	753.5396728515626	-594.1001586914064	-241.7990722656251	763.7208251953126	-599.2590942382814	-281.5815124511719	670.1457519531251	-612.1323852539064	-292.6009216308594	532.5704956054689	-646.8667602539064	-256.0173034667969	538.4743652343751	-759.9260253906251	-269.3286132812501	324.3922729492188	-687.8818359375001	-361.2151489257813	268.0772705078126	-686.6769409179689	-317.5808105468751	254.3007202148438	-686.7701416015626	-306.1703491210938	209.4847564697266	-726.8054809570314	-383.6599426269532	122.4817657470703	-711.5695190429689	-353.3349304199219	143.1914520263672	-795.290222167969	-453.3164367675782	106.2449722290039	-768.1385498046877	-230.6061706542969	53.97969436645509	-775.9900512695315	-234.4503173828126	55.88937377929689	-729.9828491210939	-290.9463195800782	39.75492858886719	-679.2577514648439	nan	nan	nan	nan	nan	nan	
814	4.065	-307.5365600585938	1768.697875976563	-639.9426269531251	nan	nan	nan	-437.668914794922	1746.33984375	-614.4874877929689	-510.9200439453126	1573.626708984375	-694.3618774414064	-516.9954833984376	1261.75732421875	-717.7553100585939	nan	nan	nan	-439.6210937500001	1593.11572265625	-852.049743652344	-273.4836120605469	1567.236328125	-965.4359130859377	-252.0701293945313	1601.6494140625	-935.5916748046877	-204.9923706054688	1581.916870117188	-967.4960937500002	-139.5284118652344	1595.382568359375	-964.675231933594	-128.5960235595703	1526.857299804688	-930.2536621093752	139.8836059570313	1647.236328125	-893.4073486328127	134.7774810791016	1652.013549804688	-969.2083129882815	219.227035522461	1687.364013671875	-893.9182739257815	-391.605682373047	1586.285034179688	-542.1602783203126	-218.3730468750001	1535.453002929688	-456.3787841796876	-196.1334381103516	1570.261596679688	-486.4290771484376	-150.5497436523438	1535.956665039063	-463.9176635742189	-89.93611907958986	1553.090698242188	-479.8448181152345	-83.90901947021486	1484.203857421875	-516.7952270507814	188.5296783447266	1609.400024414063	-580.9649658203126	195.0497589111329	1601.447387695313	-505.2276611328126	276.0090026855469	1644.404296875	-580.6506347656251	-332.1450805664063	1120.417358398438	-852.1743774414065	-324.9331970214844	1078.6201171875	-630.3295288085939	-517.2546997070314	1122.732788085938	-732.2683715820314	-516.3309326171876	1094.216552734375	-765.9263916015626	-513.4567871093751	1085.137084960938	-706.8946533203126	-213.6011962890626	917.322937011719	-940.6983642578127	-132.7915344238282	894.3527832031252	-929.982604980469	-107.8870849609375	929.6118164062502	-909.6365356445315	-110.4436798095703	836.9321289062502	-924.5303955078127	-14.49151039123536	760.6836547851564	-921.198181152344	10.9060583114624	746.7186889648439	-806.1940917968752	133.7736511230469	702.0214843750001	-891.1151123046877	126.0368881225586	633.0644531250001	-943.0000610351565	156.1094360351563	657.7033081054689	-921.4829711914065	213.2495269775391	601.5244750976564	-885.3218994140627	305.7798767089844	453.2481994628907	-931.4109497070315	310.6347961425782	451.9150695800782	-843.763122558594	296.6073913574219	360.5702514648438	-903.3160400390627	458.0759277343751	525.1123657226564	-847.4266357421877	455.8391723632814	527.9421997070314	-890.0793457031252	446.1805114746095	486.9976806640626	-949.0205078125002	-321.6014709472657	797.7700805664065	-593.9059448242189	-271.3677368164063	753.5396118164064	-594.4580078125001	-241.3551330566407	763.6083984375001	-599.8449707031251	-281.4003295898438	669.7213134765626	-612.4372558593751	-292.2747192382813	532.5372314453126	-647.1325073242189	-256.0472106933594	538.4550781250001	-760.2965087890626	-269.1090087890626	324.3489990234376	-688.2148437500001	-361.0043029785157	268.0827941894532	-686.9238281250001	-317.4620056152344	254.3174438476563	-686.9389648437501	-306.0283508300782	209.4174194335938	-727.0748901367189	-383.6747131347657	122.5214004516602	-711.6918945312501	-353.4606018066407	142.886703491211	-795.5285644531252	-453.3269958496095	106.2261276245117	-768.2102661132815	-230.6261901855469	53.94239044189455	-776.026062011719	-234.3763732910157	56.00196838378908	-729.9982299804689	-290.9336547851563	39.83887481689454	-679.3303833007814	nan	nan	nan	nan	nan	nan	
815	4.07	-307.5299682617188	1768.361206054688	-639.9767456054689	nan	nan	nan	-437.6276245117189	1746.181030273438	-614.5813598632814	-510.7956542968751	1573.481323242188	-694.3894042968751	-516.9746093750001	1261.688720703125	-717.6575927734376	nan	nan	nan	-439.5929565429689	1592.965698242188	-852.1562500000002	-273.5033874511719	1567.025634765625	-965.494812011719	-251.9989013671876	1601.45556640625	-935.6118774414065	-205.0159606933594	1581.751831054688	-967.585632324219	-139.563705444336	1595.196899414063	-964.7335205078127	-128.4905242919922	1526.426635742188	-930.4448852539065	139.8162536621094	1647.297241210938	-893.456237792969	134.8765716552735	1651.76025390625	-969.2824707031252	219.3943481445313	1687.086303710938	-893.9877929687502	-391.5191955566407	1586.129150390625	-542.1700439453126	-218.3540954589844	1535.191650390625	-456.5052795410157	-196.0856933593751	1570.064697265625	-486.3546447753907	-150.534912109375	1535.712890625	-463.9121093750001	-89.92681121826173	1552.9404296875	-479.7533264160157	-83.85190582275392	1483.653930664063	-516.8760375976564	188.6461334228516	1609.284912109375	-580.8190917968751	194.7807617187501	1600.995849609375	-505.4623107910157	276.1032714843751	1644.3330078125	-580.5158081054689	-332.2866516113282	1120.3017578125	-852.0830688476565	-324.9196472167969	1078.507568359375	-630.2367553710939	-517.2915039062501	1122.5732421875	-732.1528930664064	-516.3402099609376	1094.291015625	-765.7840576171876	-513.6104125976564	1084.991088867188	-706.8705444335939	-213.5016174316407	917.255554199219	-940.5054321289065	-132.7725067138672	894.3499145507815	-929.7976074218752	-107.8898086547852	929.5944824218752	-909.4959716796877	-110.4148025512696	836.936462402344	-924.4043579101565	-14.43852233886719	760.7447509765626	-921.0804443359377	10.94554042816162	746.7816772460939	-805.9275512695315	133.8914337158203	702.0700073242189	-890.8814697265627	126.2336578369141	633.2268676757814	-942.7667236328127	156.2732543945313	657.8764648437501	-921.2376708984377	213.3297576904297	601.6794433593751	-885.0097656250002	306.3894042968751	453.1575317382814	-931.0419921875002	310.7913208007813	452.2167358398439	-843.4498291015627	296.9060058593751	360.7800903320313	-902.9232177734377	458.0687866210939	525.2197875976564	-847.2043457031252	456.0162658691407	528.2352294921876	-889.7559204101565	446.2732849121095	487.2487792968751	-948.650085449219	-321.1574707031251	797.5263671875002	-594.1185913085939	-271.0318603515626	753.2942504882814	-594.7524414062501	-240.8530273437501	763.5695190429689	-600.3851928710939	-280.7658386230469	669.9746093750001	-612.5631103515626	-291.9867248535157	532.6477050781251	-647.5223999023439	-255.9235839843751	538.4797973632814	-760.5949707031251	-268.8156433105469	324.1820068359376	-688.6441040039064	-360.7601318359376	268.0934753417969	-687.0233154296876	-317.3263244628907	254.2693481445313	-687.1072998046876	-305.8716735839844	209.3743438720704	-727.3677978515626	-383.6638793945313	122.5461502075196	-711.8180541992189	-353.5447692871094	143.1181945800782	-795.687683105469	-453.3253173828126	106.1754913330078	-768.2354736328127	-230.5895690917969	53.74008941650392	-776.0216064453127	-234.3229522705079	56.05742645263673	-730.0527343750001	-290.8710327148438	39.8203468322754	-679.3989257812501	nan	nan	nan	nan	nan	nan	
816	4.075	-307.4288940429688	1768.219604492188	-639.9922485351564	nan	nan	nan	-437.5225219726564	1746.010864257813	-614.6195678710939	-510.844696044922	1573.417602539063	-694.4243164062501	-516.9357910156251	1261.591552734375	-717.5285644531251	nan	nan	nan	-439.5364074707032	1592.733642578125	-852.186706542969	-273.4132690429688	1566.80908203125	-965.5288085937502	-252.0120697021485	1601.307739257813	-935.627624511719	-205.0048980712891	1581.50146484375	-967.6211547851565	-139.5327758789063	1594.974487304688	-964.7554931640627	-128.4065246582032	1526.281860351563	-930.4573364257815	139.8928985595703	1647.080810546875	-893.5593872070315	134.8892822265625	1651.529907226563	-969.378356933594	219.3800964355469	1686.849731445313	-894.0698242187502	-391.4634704589845	1585.989624023438	-542.2092285156251	-218.336654663086	1534.977416992188	-456.4567260742189	-196.1259765625001	1569.888549804688	-486.2657775878907	-150.5127868652344	1535.381225585938	-463.826873779297	-89.90027618408205	1552.693115234375	-479.676483154297	-83.78729248046876	1483.501586914063	-516.8708496093751	188.7980651855469	1609.255126953125	-580.6658935546876	194.8265991210938	1600.859130859375	-505.350799560547	276.1712646484376	1644.267944335938	-580.3582763671876	-332.3907470703126	1120.181884765625	-852.0588989257815	-324.9665832519532	1078.327392578125	-630.2838134765626	-517.3082885742189	1122.416137695313	-731.9838256835939	-516.3671875000001	1094.120361328125	-765.6755981445314	-513.5714721679689	1084.776245117188	-706.7537841796876	-213.4841766357422	917.1882324218752	-940.3912353515627	-132.7506103515625	894.3467407226565	-929.7160644531252	-107.8334350585938	929.590515136719	-909.3597412109377	-110.4038009643555	836.8682250976565	-924.2764282226565	-14.35052394866944	760.7831420898439	-920.9085083007815	10.90008163452149	746.7567749023439	-805.6997070312502	133.9597778320313	702.1849365234376	-890.6347656250002	126.3523941040039	633.3961181640626	-942.5171508789065	156.4824829101563	658.1273803710939	-920.9853515625002	213.4933776855469	601.8522949218751	-884.699890136719	306.1660461425782	453.5890197753907	-930.7676391601565	311.0140075683594	452.4647827148439	-843.0764770507815	297.1629943847657	360.9805603027344	-902.5070800781252	457.9382934570314	525.4582519531251	-846.9305419921877	456.0921630859376	528.6273803710939	-889.2698974609377	446.3820800781251	487.4231567382814	-948.206970214844	-320.7210083007813	797.462341308594	-594.1815185546876	-270.7559509277344	753.2822265625001	-595.0127563476564	-240.3966217041016	763.3491210937501	-600.8482666015626	-280.3583068847657	669.8609619140626	-612.7728881835939	-291.6987609863282	532.5010375976564	-647.8347167968751	-255.8557586669922	538.3997192382814	-760.9093017578126	-268.5903320312501	324.1539611816407	-689.0164794921876	-360.5158996582032	268.1167297363282	-687.1832885742189	-317.0643615722657	254.3662109375001	-687.3485107421876	-305.7829284667969	209.3319549560547	-727.8018188476564	-383.6203002929688	122.6064376831055	-711.8901977539064	-353.6698303222657	142.7835388183594	-795.9211425781252	-453.3046875000001	106.1044998168946	-768.2934570312502	-230.6496887207032	53.7715530395508	-776.0947875976565	-234.3169250488282	56.05196380615236	-730.1533203125001	-290.8338623046876	39.90108489990235	-679.4477539062501	nan	nan	nan	nan	nan	nan	
